<?xml version="1.0" standalone="no"?>
<svg xmlns="http://www.w3.org/2000/svg" viewBox="0 0 127.992 36" width="127.992" height="36"><g fill="#ead017" color="#ead017" transform="translate(0 4) scale(0.5833334)"><svg width="48.0" height="48.0" x="0.0" y="0.0" viewBox="0 0 48 48"><path fill="currentColor" fill-rule="nonzero" d="M24 .21L.21 24 24 47.79 47.79 24 24 .21zM5.82 24L24 5.82l7.69 7.69-2.8 2.8L24 11.43 11.43 24l4.88 4.89-2.8 2.8L5.82 24zm25.15 0L24 30.97 17.03 24 24 17.03 30.97 24zM16.31 34.49l2.8-2.8L24 36.57 36.57 24l-4.89-4.89 2.8-2.8 7.7 7.69L24 42.18l-7.69-7.69z"></path></svg></g><path fill="#000000" fill-rule="nonzero" d="M9.70 11.42L9.70 11.42L12.79 11.42Q12.79 14.69 11.16 16.44Q9.53 18.19 6.55 18.19L6.55 18.19Q0 18.19 0 10.49L0 10.49L0 9.05Q0 2.98 3.36 1.44L3.36 1.44Q4.68 0.82 6.55 0.82L6.55 0.82Q9.29 0.82 11.00 2.32Q12.72 3.82 12.72 6.65L12.72 6.65L9.60 6.65Q9.34 5.23 8.66 4.51Q7.99 3.79 6.55 3.79L6.55 3.79Q4.87 3.79 4.06 4.85L4.06 4.85Q3.48 5.59 3.38 7.39L3.38 7.39Q3.34 7.97 3.34 8.95L3.34 8.95L3.34 10.44Q3.34 13.20 4.10 14.21L4.10 14.21Q4.90 15.22 6.56 15.22Q8.23 15.22 8.87 14.29Q9.50 13.37 9.70 11.42ZM22.80 11.86L22.80 11.86L22.80 10.61Q22.80 8.83 22.28 7.90Q21.77 6.96 20.14 6.96L20.14 6.96Q17.50 6.96 17.50 10.51L17.50 10.51L17.50 11.76Q17.50 15.58 20.14 15.58L20.14 15.58Q21.84 15.58 22.37 14.30L22.37 14.30Q22.80 13.30 22.80 11.86ZM25.92 11.14L25.92 11.14Q25.92 15.58 24.24 17.09L24.24 17.09Q22.82 18.38 20.14 18.38L20.14 18.38Q16.70 18.38 15.50 16.37L15.50 16.37Q14.38 14.52 14.38 11.14L14.38 11.14Q14.38 7.97 15.50 6.17L15.50 6.17Q16.75 4.15 20.05 4.15Q23.35 4.15 24.64 5.92Q25.92 7.68 25.92 11.14ZM38.38 0L38.38 18.05L36.29 18.05L35.33 16.39L31.99 18.19Q29.21 18.19 28.25 16.18L28.25 16.18Q27.77 15.19 27.59 14.05Q27.41 12.91 27.41 11.68Q27.41 10.44 27.43 9.85Q27.46 9.26 27.55 8.48Q27.65 7.70 27.83 7.18Q28.01 6.65 28.34 6.08Q28.68 5.52 29.16 5.18L29.16 5.18Q30.24 4.44 31.97 4.44L31.97 4.44L35.26 4.44L35.26 0L38.38 0ZM32.88 14.90L35.26 13.68L35.26 7.25L32.88 7.25Q31.56 7.25 31.04 8.26Q30.53 9.26 30.53 11.27Q30.53 13.27 31.02 14.09Q31.51 14.90 32.88 14.90L32.88 14.90ZM52.15 11.93L52.15 11.93L44.16 11.93Q44.16 13.80 44.75 14.66Q45.34 15.53 47.11 15.53L47.11 15.53Q48.26 15.53 48.82 14.80Q49.37 14.06 49.37 13.39L49.37 13.39L52.18 13.39Q52.18 15.96 50.80 17.16Q49.42 18.36 47.15 18.36Q44.88 18.36 43.63 17.71L43.63 17.71Q41.06 16.39 41.06 10.70L41.06 10.70Q41.06 7.32 42.53 5.75Q43.99 4.18 46.99 4.18L46.99 4.18Q52.20 4.18 52.20 9.96L52.20 9.96Q52.20 10.58 52.15 11.93ZM44.23 9.79L44.23 9.79L49.37 9.79Q49.37 8.21 48.77 7.49Q48.17 6.77 46.93 6.77Q45.70 6.77 44.96 7.50Q44.23 8.23 44.23 9.79ZM60.89 18.07L60.89 18.07L58.18 18.05Q56.38 18.05 55.45 16.99Q54.53 15.94 54.53 14.47L54.53 14.47L54.53 0L57.65 0L57.65 6.05L61.37 4.32Q63.50 4.32 64.51 5.47L64.51 5.47Q65.40 6.50 65.62 8.81L65.62 8.81Q65.69 9.77 65.69 11.18L65.69 11.18Q65.69 18.07 60.89 18.07ZM58.44 15.38L58.44 15.38L59.98 15.38Q62.57 15.38 62.57 11.18L62.57 11.18Q62.57 9.05 62.17 8.21Q61.78 7.37 60.46 7.37L60.46 7.37L57.65 8.88L57.65 14.28Q57.65 15.24 58.44 15.38ZM75.89 11.86L75.89 11.86L75.89 10.61Q75.89 8.83 75.37 7.90Q74.86 6.96 73.22 6.96L73.22 6.96Q70.58 6.96 70.58 10.51L70.58 10.51L70.58 11.76Q70.58 15.58 73.22 15.58L73.22 15.58Q74.93 15.58 75.46 14.30L75.46 14.30Q75.89 13.30 75.89 11.86ZM79.01 11.14L79.01 11.14Q79.01 15.58 77.33 17.09L77.33 17.09Q75.91 18.38 73.22 18.38L73.22 18.38Q69.79 18.38 68.59 16.37L68.59 16.37Q67.46 14.52 67.46 11.14L67.46 11.14Q67.46 7.97 68.59 6.17L68.59 6.17Q69.84 4.15 73.14 4.15Q76.44 4.15 77.72 5.92Q79.01 7.68 79.01 11.14ZM87.67 11.06L91.99 18.05L88.49 18.05L86.06 13.85L83.78 18.05L80.04 18.05L84.48 11.06L80.21 4.34L83.71 4.34L86.11 8.30L88.44 4.34L91.94 4.34L87.67 11.06Z" transform="translate(36, 8.808)"></path></svg>